<svg xmlns="http://www.w3.org/2000/svg" xmlns:svg="http://www.w3.org/2000/svg" id="svg2" width="372.047" height="262.205" version="1.1"><defs id="defs4"><marker id="TriangleOutM" orient="auto" refX="0" refY="0" style="overflow:visible"><path id="path5012" d="M 5.77,0.0 L -2.88,5.0 L -2.88,-5.0 L 5.77,0.0 z" style="fill-rule:evenodd;stroke:#000;stroke-width:1pt" transform="scale(0.4)"/></marker><marker id="TriangleOutL" orient="auto" refX="0" refY="0" style="overflow:visible"><path id="path5009" d="M 5.77,0.0 L -2.88,5.0 L -2.88,-5.0 L 5.77,0.0 z" style="fill-rule:evenodd;stroke:#000;stroke-width:1pt" transform="scale(0.8)"/></marker><marker id="Arrow2Lend" orient="auto" refX="0" refY="0" style="overflow:visible"><path id="path4888" style="fill-rule:evenodd;stroke-width:.625;stroke-linejoin:round" d="M 8.7185878,4.0337352 L -2.2072895,0.016013256 L 8.7185884,-4.0017078 C 6.9730900,-1.6296469 6.9831476,1.6157441 8.7185878,4.0337352 z" transform="scale(1.1) rotate(180) translate(1,0)"/></marker></defs><metadata id="metadata7"/><g id="layer1" transform="translate(0,-790.15744)"><g id="g6997" transform="translate(0,0.17677669)"><g id="g4835" transform="translate(21.79899,7.2928933)"><g id="g4721" transform="translate(-2.6011424,-1.5258789e-5)"><path id="path3885" d="m 98.237335,60.300472 c 0,8.019695 -6.501247,14.520943 -14.520942,14.520943 -8.019696,0 -14.520943,-6.501248 -14.520943,-14.520943 0,-8.019695 6.501247,-14.520942 14.520943,-14.520942 8.019695,0 14.520942,6.501247 14.520942,14.520942 z" transform="matrix(1.1448338,0,0,1.1448338,-9.9783931,783.57046)" style="fill:#f5a030;fill-opacity:1;fill-rule:evenodd;stroke:#000;stroke-width:.60000002;stroke-linecap:butt;stroke-linejoin:miter;stroke-miterlimit:4;stroke-opacity:1;stroke-dasharray:none"/><text id="text4681" x="75.489" y="856.372" style="font-size:40px;font-style:normal;font-weight:400;line-height:125%;letter-spacing:0;word-spacing:0;fill:#000;fill-opacity:1;stroke:none;font-family:Sans" xml:space="preserve"><tspan style="font-size:13px" id="tspan4683" x="75.489" y="856.372">Src</tspan></text></g><g id="g4731" transform="translate(8.7630735,76.367533)"><g id="g4718"><path id="path4710" d="m 98.237335,60.300472 c 0,8.019695 -6.501247,14.520943 -14.520942,14.520943 -8.019696,0 -14.520943,-6.501248 -14.520943,-14.520943 0,-8.019695 6.501247,-14.520942 14.520943,-14.520942 8.019695,0 14.520942,6.501247 14.520942,14.520942 z" transform="matrix(1.1448338,0,0,1.1448338,-21.342609,840.64408)" style="fill:#f5a030;fill-opacity:1;fill-rule:evenodd;stroke:#000;stroke-width:.60000002;stroke-linecap:butt;stroke-linejoin:miter;stroke-miterlimit:4;stroke-opacity:1;stroke-dasharray:none"/></g><text xml:space="preserve" style="font-size:40px;font-style:normal;font-weight:400;line-height:125%;letter-spacing:0;word-spacing:0;fill:#000;fill-opacity:1;stroke:none;font-family:Sans" id="text4687" x="62.882" y="914.224"><tspan id="tspan4689" x="62.882" y="914.224" style="font-size:13px">Snk</tspan></text></g><g id="g4753"><g id="g4726" transform="translate(-67.755979,8.3842533)"><path style="fill:#f5a030;fill-opacity:1;fill-rule:evenodd;stroke:#000;stroke-width:.60000002;stroke-linecap:butt;stroke-linejoin:miter;stroke-miterlimit:4;stroke-opacity:1;stroke-dasharray:none" id="path4712" d="m 98.237335,60.300472 c 0,8.019695 -6.501247,14.520943 -14.520942,14.520943 -8.019696,0 -14.520943,-6.501248 -14.520943,-14.520943 0,-8.019695 6.501247,-14.520942 14.520943,-14.520942 8.019695,0 14.520942,6.501247 14.520942,14.520942 z" transform="matrix(1.1448338,0,0,1.1448338,55.176446,841.90677)"/><text xml:space="preserve" style="font-size:40px;font-style:normal;font-weight:400;line-height:125%;letter-spacing:0;word-spacing:0;fill:#000;fill-opacity:1;stroke:none;font-family:Sans" id="text4714" x="137.401" y="915.487"><tspan id="tspan4716" x="137.401" y="915.487" style="font-size:13px">Map</tspan></text></g><g id="g4737" transform="translate(-119.198,8.3842533)"><path id="path4739" d="m 98.237335,60.300472 c 0,8.019695 -6.501247,14.520943 -14.520942,14.520943 -8.019696,0 -14.520943,-6.501248 -14.520943,-14.520943 0,-8.019695 6.501247,-14.520942 14.520943,-14.520942 8.019695,0 14.520942,6.501247 14.520942,14.520942 z" transform="matrix(1.1448338,0,0,1.1448338,55.176446,841.90677)" style="fill:#f5a030;fill-opacity:1;fill-rule:evenodd;stroke:#000;stroke-width:.60000002;stroke-linecap:butt;stroke-linejoin:miter;stroke-miterlimit:4;stroke-opacity:1;stroke-dasharray:none"/><text id="text4741" x="137.401" y="915.487" style="font-size:40px;font-style:normal;font-weight:400;line-height:125%;letter-spacing:0;word-spacing:0;fill:#000;fill-opacity:1;stroke:none;font-family:Sans" xml:space="preserve"><tspan style="font-size:13px" id="tspan4743" x="137.401" y="915.487">Map</tspan></text></g><g id="g4745" transform="translate(-16.313963,8.3842533)"><path style="fill:#f5a030;fill-opacity:1;fill-rule:evenodd;stroke:#000;stroke-width:.60000002;stroke-linecap:butt;stroke-linejoin:miter;stroke-miterlimit:4;stroke-opacity:1;stroke-dasharray:none" id="path4747" d="m 98.237335,60.300472 c 0,8.019695 -6.501247,14.520943 -14.520942,14.520943 -8.019696,0 -14.520943,-6.501248 -14.520943,-14.520943 0,-8.019695 6.501247,-14.520942 14.520943,-14.520942 8.019695,0 14.520942,6.501247 14.520942,14.520942 z" transform="matrix(1.1448338,0,0,1.1448338,55.176446,841.90677)"/><text xml:space="preserve" style="font-size:40px;font-style:normal;font-weight:400;line-height:125%;letter-spacing:0;word-spacing:0;fill:#000;fill-opacity:1;stroke:none;font-family:Sans" id="text4749" x="137.401" y="915.487"><tspan id="tspan4751" x="137.401" y="915.487" style="font-size:13px">Map</tspan></text></g></g></g><path id="path4861" d="M 97.248545,875.21054 54.181606,908.06852" style="fill:none;stroke:#000;stroke-width:.95726824px;stroke-linecap:butt;stroke-linejoin:miter;stroke-opacity:1;marker-end:url(#TriangleOutM)"/><path id="path5871" d="m 104.6518,87.195784 -0.35355,31.112696" transform="translate(0,790.15744)" style="fill:none;stroke:#000;stroke-width:1px;stroke-linecap:butt;stroke-linejoin:miter;stroke-opacity:1;marker-mid:none;marker-end:url(#TriangleOutM)"/><path id="path6245" d="m 113.49064,84.72091 41.36575,33.58757" transform="translate(0,790.15744)" style="fill:none;stroke:#000;stroke-width:1px;stroke-linecap:butt;stroke-linejoin:miter;stroke-opacity:1;marker-end:url(#TriangleOutM)"/><path id="path6433" d="m 53.033009,154.37093 43.84062,32.17336" transform="translate(0,790.15744)" style="fill:none;stroke:#000;stroke-width:1px;stroke-linecap:butt;stroke-linejoin:miter;stroke-opacity:1;marker-end:url(#TriangleOutM)"/><path id="path6621" d="m 104.29825,153.66382 0.35355,31.46625" transform="translate(0,790.15744)" style="fill:none;stroke:#000;stroke-width:1px;stroke-linecap:butt;stroke-linejoin:miter;stroke-opacity:1;marker-end:url(#TriangleOutM)"/><path id="path6809" d="m 155.56349,154.01737 -41.7193,32.52692" transform="translate(0,790.15744)" style="fill:none;stroke:#000;stroke-width:1px;stroke-linecap:butt;stroke-linejoin:miter;stroke-opacity:1;marker-end:url(#TriangleOutM)"/></g><g id="g7028" transform="translate(157.92745,0.17677669)"><g id="g7030" transform="translate(21.79899,7.2928933)"><g id="g7032" transform="translate(-2.6011424,-1.5258789e-5)"><path style="fill:#f5a030;fill-opacity:1;fill-rule:evenodd;stroke:#000;stroke-width:.60000002;stroke-linecap:butt;stroke-linejoin:miter;stroke-miterlimit:4;stroke-opacity:1;stroke-dasharray:none" id="path7034" d="m 98.237335,60.300472 c 0,8.019695 -6.501247,14.520943 -14.520942,14.520943 -8.019696,0 -14.520943,-6.501248 -14.520943,-14.520943 0,-8.019695 6.501247,-14.520942 14.520943,-14.520942 8.019695,0 14.520942,6.501247 14.520942,14.520942 z" transform="matrix(1.1448338,0,0,1.1448338,-9.9783931,783.57046)"/><text xml:space="preserve" style="font-size:40px;font-style:normal;font-weight:400;line-height:125%;letter-spacing:0;word-spacing:0;fill:#000;fill-opacity:1;stroke:none;font-family:Sans" id="text7036" x="75.489" y="856.372"><tspan id="tspan7038" x="75.489" y="856.372" style="font-size:13px">Src</tspan></text></g><g id="g7040" transform="translate(8.7630735,76.367533)"><g id="g7042"><path style="fill:#f5a030;fill-opacity:1;fill-rule:evenodd;stroke:#000;stroke-width:.60000002;stroke-linecap:butt;stroke-linejoin:miter;stroke-miterlimit:4;stroke-opacity:1;stroke-dasharray:none" id="path7044" d="m 98.237335,60.300472 c 0,8.019695 -6.501247,14.520943 -14.520942,14.520943 -8.019696,0 -14.520943,-6.501248 -14.520943,-14.520943 0,-8.019695 6.501247,-14.520942 14.520943,-14.520942 8.019695,0 14.520942,6.501247 14.520942,14.520942 z" transform="matrix(1.1448338,0,0,1.1448338,-21.342609,840.64408)"/></g><text id="text7046" x="62.882" y="914.224" style="font-size:40px;font-style:normal;font-weight:400;line-height:125%;letter-spacing:0;word-spacing:0;fill:#000;fill-opacity:1;stroke:none;font-family:Sans" xml:space="preserve"><tspan style="font-size:13px" id="tspan7048" x="62.882" y="914.224">Snk</tspan></text></g><g id="g7050"><g id="g7052" transform="translate(-67.755979,8.3842533)"><path id="path7054" d="m 98.237335,60.300472 c 0,8.019695 -6.501247,14.520943 -14.520942,14.520943 -8.019696,0 -14.520943,-6.501248 -14.520943,-14.520943 0,-8.019695 6.501247,-14.520942 14.520943,-14.520942 8.019695,0 14.520942,6.501247 14.520942,14.520942 z" transform="matrix(1.1448338,0,0,1.1448338,55.176446,841.90677)" style="fill:#f5a030;fill-opacity:1;fill-rule:evenodd;stroke:#000;stroke-width:.60000002;stroke-linecap:butt;stroke-linejoin:miter;stroke-miterlimit:4;stroke-opacity:1;stroke-dasharray:none"/><text id="text7056" x="137.401" y="915.487" style="font-size:40px;font-style:normal;font-weight:400;line-height:125%;letter-spacing:0;word-spacing:0;fill:#000;fill-opacity:1;stroke:none;font-family:Sans" xml:space="preserve"><tspan style="font-size:13px" id="tspan7058" x="137.401" y="915.487">Map</tspan></text></g><g id="g7060" transform="translate(-119.198,8.3842533)"><path style="fill:#f5a030;fill-opacity:1;fill-rule:evenodd;stroke:#000;stroke-width:.60000002;stroke-linecap:butt;stroke-linejoin:miter;stroke-miterlimit:4;stroke-opacity:1;stroke-dasharray:none" id="path7062" d="m 98.237335,60.300472 c 0,8.019695 -6.501247,14.520943 -14.520942,14.520943 -8.019696,0 -14.520943,-6.501248 -14.520943,-14.520943 0,-8.019695 6.501247,-14.520942 14.520943,-14.520942 8.019695,0 14.520942,6.501247 14.520942,14.520942 z" transform="matrix(1.1448338,0,0,1.1448338,55.176446,841.90677)"/><text xml:space="preserve" style="font-size:40px;font-style:normal;font-weight:400;line-height:125%;letter-spacing:0;word-spacing:0;fill:#000;fill-opacity:1;stroke:none;font-family:Sans" id="text7064" x="137.401" y="915.487"><tspan id="tspan7066" x="137.401" y="915.487" style="font-size:13px">Map</tspan></text></g><g id="g7068" transform="translate(-16.313963,8.3842533)"><path id="path7070" d="m 98.237335,60.300472 c 0,8.019695 -6.501247,14.520943 -14.520942,14.520943 -8.019696,0 -14.520943,-6.501248 -14.520943,-14.520943 0,-8.019695 6.501247,-14.520942 14.520943,-14.520942 8.019695,0 14.520942,6.501247 14.520942,14.520942 z" transform="matrix(1.1448338,0,0,1.1448338,55.176446,841.90677)" style="fill:#f5a030;fill-opacity:1;fill-rule:evenodd;stroke:#000;stroke-width:.60000002;stroke-linecap:butt;stroke-linejoin:miter;stroke-miterlimit:4;stroke-opacity:1;stroke-dasharray:none"/><text id="text7072" x="137.401" y="915.487" style="font-size:40px;font-style:normal;font-weight:400;line-height:125%;letter-spacing:0;word-spacing:0;fill:#000;fill-opacity:1;stroke:none;font-family:Sans" xml:space="preserve"><tspan style="font-size:13px" id="tspan7074" x="137.401" y="915.487">Map</tspan></text></g></g></g><path style="fill:none;stroke:#000;stroke-width:.95726824px;stroke-linecap:butt;stroke-linejoin:miter;stroke-opacity:1;marker-end:url(#TriangleOutM)" id="path7076" d="M 97.248545,875.21054 54.181606,908.06852"/><path style="fill:none;stroke:#000;stroke-width:1px;stroke-linecap:butt;stroke-linejoin:miter;stroke-opacity:1;marker-mid:none;marker-end:url(#TriangleOutM)" id="path7078" d="m 104.6518,87.195784 -0.35355,31.112696" transform="translate(0,790.15744)"/><path style="fill:none;stroke:#000;stroke-width:1px;stroke-linecap:butt;stroke-linejoin:miter;stroke-opacity:1;marker-end:url(#TriangleOutM)" id="path7080" d="m 113.49064,84.72091 41.36575,33.58757" transform="translate(0,790.15744)"/><path style="fill:none;stroke:#000;stroke-width:1px;stroke-linecap:butt;stroke-linejoin:miter;stroke-opacity:1;marker-end:url(#TriangleOutM)" id="path7082" d="m 53.033009,154.37093 43.84062,32.17336" transform="translate(0,790.15744)"/><path style="fill:none;stroke:#000;stroke-width:1px;stroke-linecap:butt;stroke-linejoin:miter;stroke-opacity:1;marker-end:url(#TriangleOutM)" id="path7084" d="m 104.29825,153.66382 0.35355,31.46625" transform="translate(0,790.15744)"/><path style="fill:none;stroke:#000;stroke-width:1px;stroke-linecap:butt;stroke-linejoin:miter;stroke-opacity:1;marker-end:url(#TriangleOutM)" id="path7086" d="m 155.56349,154.01737 -41.7193,32.52692" transform="translate(0,790.15744)"/></g></g></svg>